<?xml version="1.0" encoding="UTF-8"?>
<svg id="Layer_1" version="1.1" viewBox="0 0 807.85 185.65" xmlns="http://www.w3.org/2000/svg">
 <defs>
  <style>
    .st0 { fill: none; }
    .st1 { fill-rule: evenodd; }
    .st1, .st2, .st3 { fill: #ffffff; }
    .st4 { isolation: isolate; }
    .st5 { clip-path: url(#clippath-1); }
    .st6 { clip-path: url(#clippath); }
  </style>
  <clipPath id="clippath">
   <rect class="st0" x="36.53" y="29.71" width="739.86" height="89.77"/>
  </clipPath>
  <clipPath id="clippath-1">
   <rect class="st0" x="36.53" y="29.65" width="739.86" height="89.83"/>
  </clipPath>
 </defs>
 <g class="st6">
  <g class="st5">
   <path class="st1" d="m728.93 113.61c0 3.24-2.63 5.87-5.87 5.87s-5.87-2.63-5.87-5.87 2.63-5.87 5.87-5.87 5.87 2.63 5.87 5.87"/>
   <polygon class="st2" points="64.72 47.01 36.53 47.01 36.53 30.41 113.28 30.41 113.28 47.01 85.1 47.01 85.1 118.47 64.72 118.47"/>
   <polygon class="st2" points="204.99 30.41 204.99 118.47 184.61 118.47 184.61 82.36 144.6 82.36 144.6 118.47 124.22 118.47 124.22 30.41 144.6 30.41 144.6 65.13 184.61 65.13 184.61 30.41"/>
   <path class="st2" d="m280.02 118.47-16.99-24.53h-18.74v24.53h-20.38v-88.07h38.12c7.8 0 14.57 1.3 20.32 3.9 5.74 2.6 10.17 6.29 13.27 11.07s4.66 10.44 4.66 16.99-1.57 12.18-4.72 16.92-7.61 8.37-13.4 10.88l19.75 28.31h-21.89zm-5.16-67.5c-3.19-2.64-7.84-3.96-13.96-3.96h-16.61v30.7h16.61c6.12 0 10.77-1.34 13.96-4.02s4.78-6.46 4.78-11.32-1.6-8.74-4.78-11.39"/>
   <polygon class="st2" points="384.56 102.12 384.56 118.47 316.38 118.47 316.38 30.41 382.93 30.41 382.93 46.76 336.63 46.76 336.63 65.88 377.52 65.88 377.52 81.73 336.63 81.73 336.63 102.12"/>
   <polygon class="st2" points="468.98 102.12 468.98 118.47 400.79 118.47 400.79 30.41 467.34 30.41 467.34 46.76 421.05 46.76 421.05 65.88 461.93 65.88 461.93 81.73 421.05 81.73 421.05 102.12"/>
   <polygon class="st2" points="565.35 118.47 565.22 65.63 539.3 109.16 530.12 109.16 504.33 66.76 504.33 118.47 485.21 118.47 485.21 30.41 502.07 30.41 535.03 85.13 567.49 30.41 584.22 30.41 584.47 118.47"/>
   <path class="st2" d="m663.35 99.6h-40.89l-7.8 18.87h-20.89l39.25-88.06h20.13l39.38 88.06h-21.39l-7.8-18.87h0.01zm-6.42-15.47-13.96-33.72-13.97 33.72h27.93z"/>
   <path class="st2" d="m742.24 107.73c-3.24 0-5.87 2.63-5.87 5.87s2.63 5.87 5.87 5.87 5.87-2.63 5.87-5.87-2.63-5.87-5.87-5.87"/>
   <path class="st2" d="m761.41 107.73c-3.24 0-5.87 2.63-5.87 5.87s2.63 5.87 5.87 5.87 5.87-2.63 5.87-5.87-2.63-5.87-5.87-5.87"/>
   <path class="st2" d="M776.39,64.64c0-19.26-15.67-34.93-34.93-34.93s-34.92,15.67-34.92,34.93c0,7.65,2.47,14.72,6.65,20.48l-4.36,12.97,13.42-4.3c5.52,3.65,12.12,5.78,19.21,5.78,19.26,0,34.93-15.67,34.93-34.93M727.94,76.74v-12.68c0-1.75,1.42-3.17,3.17-3.17h.31v-4.7c0-5.54,4.51-10.04,10.05-10.04s10.04,4.51,10.04,10.04v4.7h.31c1.75,0,3.17,1.42,3.17,3.17v12.68c0,1.75-1.42,3.17-3.17,3.17h-20.7c-1.75,0-3.17-1.42-3.17-3.17"/>
   <path class="st2" d="m741.46 50.26c-3.27 0-5.93 2.66-5.93 5.93v4.7h11.86v-4.7c0-3.27-2.66-5.93-5.93-5.93"/>
  </g>
 </g>
 <g class="st4">
  <path class="st3" d="m43.56 146.99h-6.9v-4.07h18.8v4.07h-6.9v17.51h-4.99v-17.51z"/>
  <path class="st3" d="m77.92 142.93v21.57h-4.99v-8.85h-9.8v8.85h-4.99v-21.57h4.99v8.51h9.8v-8.51h4.99z"/>
  <path class="st3" d="m99.74 160.49v4.01h-16.7v-21.57h16.3v4.01h-11.34v4.68h10.02v3.88h-10.02v4.99h11.74z"/>
  <path class="st3" d="M126.75,143.88c1.41.64,2.49,1.54,3.25,2.71.76,1.17,1.14,2.56,1.14,4.16s-.38,2.96-1.14,4.15c-.76,1.18-1.84,2.09-3.25,2.71-1.41.63-3.07.94-4.98.94h-4.35v5.95h-4.99v-21.57h9.34c1.91,0,3.57.32,4.98.96ZM124.92,153.51c.78-.65,1.17-1.57,1.17-2.76s-.39-2.14-1.17-2.79-1.92-.97-3.42-.97h-4.07v7.49h4.07c1.5,0,2.64-.32,3.42-.97Z"/>
  <path class="st3" d="m148.44 164.5-4.16-6.01h-4.59v6.01h-4.99v-21.57h9.34c1.91 0 3.57 0.32 4.98 0.96s2.49 1.54 3.25 2.71 1.14 2.56 1.14 4.16-0.39 2.99-1.16 4.15-1.86 2.05-3.28 2.67l4.84 6.93h-5.36zm-1.27-16.53c-0.78-0.65-1.92-0.97-3.42-0.97h-4.07v7.52h4.07c1.5 0 2.64-0.33 3.42-0.99s1.17-1.58 1.17-2.77-0.39-2.14-1.17-2.79z"/>
  <path class="st3" d="m161.73 163.42c-1.8-0.96-3.21-2.3-4.22-3.99-1.02-1.69-1.53-3.6-1.53-5.72s0.51-4.02 1.53-5.72 2.42-3.03 4.22-3.99 3.82-1.45 6.06-1.45 4.25 0.48 6.04 1.45 3.19 2.3 4.22 3.99c1.03 1.7 1.54 3.6 1.54 5.72s-0.51 4.02-1.54 5.72-2.43 3.03-4.22 3.99c-1.79 0.97-3.8 1.45-6.04 1.45s-4.26-0.48-6.06-1.45zm9.51-3.68c1.03-0.59 1.83-1.4 2.42-2.45s0.88-2.24 0.88-3.58-0.29-2.53-0.88-3.58-1.39-1.86-2.42-2.45c-1.03-0.58-2.18-0.88-3.45-0.88s-2.42 0.29-3.45 0.88-1.83 1.4-2.42 2.45-0.88 2.24-0.88 3.58 0.29 2.53 0.88 3.58 1.39 1.86 2.42 2.45 2.18 0.88 3.45 0.88 2.42-0.29 3.45-0.88z"/>
  <path class="st3" d="m187.52 146.99h-6.9v-4.07h18.8v4.07h-6.9v17.51h-4.99v-17.51z"/>
  <path class="st3" d="m218.8 160.49v4.01h-16.7v-21.57h16.3v4.01h-11.34v4.68h10.02v3.88h-10.02v4.99h11.74z"/>
  <path class="st3" d="M227.07,163.44c-1.78-.96-3.17-2.28-4.19-3.98s-1.53-3.61-1.53-5.75.51-4.05,1.53-5.75,2.41-3.02,4.19-3.98,3.78-1.43,5.99-1.43c1.87,0,3.56.33,5.07.99,1.51.66,2.78,1.6,3.81,2.84l-3.21,2.96c-1.46-1.68-3.27-2.53-5.42-2.53-1.34,0-2.53.29-3.58.88-1.05.59-1.86,1.4-2.45,2.45s-.88,2.24-.88,3.58.29,2.53.88,3.58,1.4,1.86,2.45,2.45,2.24.88,3.58.88c2.16,0,3.97-.85,5.42-2.56l3.21,2.96c-1.03,1.25-2.3,2.21-3.82,2.87-1.52.66-3.22.99-5.09.99-2.2,0-4.19-.48-5.96-1.43Z"/>
  <path class="st3" d="m249.56 146.99h-6.9v-4.07h18.8v4.07h-6.9v17.51h-4.99v-17.51z"/>
  <path class="st3" d="m280.84 160.49v4.01h-16.7v-21.57h16.3v4.01h-11.34v4.68h10.02v3.88h-10.02v4.99h11.74z"/>
  <path class="st3" d="M284.81,142.93h9.8c2.34,0,4.41.45,6.21,1.34s3.19,2.15,4.19,3.78c1,1.62,1.49,3.51,1.49,5.67s-.5,4.05-1.49,5.67c-1,1.62-2.39,2.88-4.19,3.78s-3.87,1.34-6.21,1.34h-9.8v-21.57ZM294.37,160.4c2.16,0,3.88-.6,5.16-1.8s1.93-2.83,1.93-4.88-.64-3.68-1.93-4.88-3-1.8-5.16-1.8h-4.56v13.38h4.56Z"/>
  <path class="st3" d="M323.35,163.44c-1.78-.96-3.17-2.28-4.19-3.98s-1.53-3.61-1.53-5.75.51-4.05,1.53-5.75,2.41-3.02,4.19-3.98,3.78-1.43,5.99-1.43c1.87,0,3.56.33,5.07.99,1.51.66,2.78,1.6,3.81,2.84l-3.21,2.96c-1.46-1.68-3.27-2.53-5.42-2.53-1.34,0-2.53.29-3.58.88-1.05.59-1.86,1.4-2.45,2.45s-.88,2.24-.88,3.58.29,2.53.88,3.58,1.4,1.86,2.45,2.45,2.24.88,3.58.88c2.16,0,3.97-.85,5.42-2.56l3.21,2.96c-1.03,1.25-2.3,2.21-3.82,2.87-1.52.66-3.22.99-5.09.99-2.2,0-4.19-.48-5.96-1.43Z"/>
  <path class="st3" d="m345.51 163.42c-1.8-0.96-3.21-2.3-4.22-3.99-1.02-1.69-1.53-3.6-1.53-5.72s0.51-4.02 1.53-5.72 2.42-3.03 4.22-3.99 3.82-1.45 6.06-1.45 4.25 0.48 6.04 1.45 3.19 2.3 4.22 3.99c1.03 1.7 1.54 3.6 1.54 5.72s-0.51 4.02-1.54 5.72-2.43 3.03-4.22 3.99c-1.79 0.97-3.8 1.45-6.04 1.45s-4.26-0.48-6.06-1.45zm9.51-3.68c1.03-0.59 1.83-1.4 2.42-2.45s0.88-2.24 0.88-3.58-0.29-2.53-0.88-3.58-1.39-1.86-2.42-2.45c-1.03-0.58-2.18-0.88-3.45-0.88s-2.42 0.29-3.45 0.88-1.83 1.4-2.42 2.45-0.88 2.24-0.88 3.58 0.29 2.53 0.88 3.58 1.39 1.86 2.42 2.45 2.18 0.88 3.45 0.88 2.42-0.29 3.45-0.88z"/>
  <path class="st3" d="M386.76,164.5l-.03-12.94-6.35,10.66h-2.25l-6.32-10.39v12.67h-4.68v-21.57h4.13l8.07,13.41,7.95-13.41h4.1l.06,21.57h-4.68Z"/>
  <path class="st3" d="M416.2,164.5l-.03-12.94-6.35,10.66h-2.25l-6.32-10.39v12.67h-4.68v-21.57h4.13l8.07,13.41,7.95-13.41h4.1l.06,21.57h-4.68Z"/>
  <path class="st3" d="M428.39,162.31c-1.72-1.71-2.57-4.14-2.57-7.3v-12.08h4.99v11.9c0,3.86,1.6,5.79,4.81,5.79,1.56,0,2.75-.47,3.58-1.4.82-.94,1.23-2.4,1.23-4.39v-11.9h4.93v12.08c0,3.16-.86,5.6-2.57,7.3-1.72,1.71-4.11,2.56-7.2,2.56s-5.48-.85-7.2-2.56Z"/>
  <path class="st3" d="m470.07 142.93v21.57h-4.1l-10.76-13.1v13.1h-4.93v-21.57h4.13l10.73 13.1v-13.1h4.93z"/>
  <path class="st3" d="m475.19 142.93h4.99v21.57h-4.99v-21.57z"/>
  <path class="st3" d="m489.66 163.44c-1.78-0.96-3.17-2.28-4.19-3.98s-1.53-3.61-1.53-5.75 0.51-4.05 1.53-5.75 2.41-3.02 4.19-3.98 3.78-1.43 6-1.43c1.87 0 3.56 0.33 5.07 0.99s2.78 1.6 3.81 2.84l-3.21 2.96c-1.46-1.68-3.27-2.53-5.42-2.53-1.34 0-2.53 0.29-3.58 0.88s-1.86 1.4-2.45 2.45-0.88 2.24-0.88 3.58 0.29 2.53 0.88 3.58 1.4 1.86 2.45 2.45 2.24 0.88 3.58 0.88c2.16 0 3.96-0.85 5.42-2.56l3.21 2.96c-1.03 1.25-2.3 2.21-3.82 2.87s-3.22 0.99-5.08 0.99c-2.2 0-4.19-0.48-5.96-1.43z"/>
  <path class="st3" d="m521.66 159.88h-10.02l-1.91 4.62h-5.12l9.62-21.57h4.93l9.65 21.57h-5.24l-1.91-4.62zm-1.57-3.79-3.42-8.26-3.42 8.26h6.84z"/>
  <path class="st3" d="m534.45 146.99h-6.9v-4.07h18.8v4.07h-6.9v17.51h-4.99v-17.51z"/>
  <path class="st3" d="m549.03 142.93h4.99v21.57h-4.99v-21.57z"/>
  <path class="st3" d="m563.53 163.42c-1.8-0.96-3.21-2.3-4.22-3.99-1.02-1.69-1.53-3.6-1.53-5.72s0.51-4.02 1.53-5.72 2.42-3.03 4.22-3.99c1.8-0.97 3.82-1.45 6.06-1.45s4.25 0.48 6.04 1.45 3.19 2.3 4.22 3.99c1.03 1.7 1.54 3.6 1.54 5.72s-0.51 4.02-1.54 5.72-2.44 3.03-4.22 3.99c-1.79 0.97-3.8 1.45-6.04 1.45s-4.26-0.48-6.06-1.45zm9.51-3.68c1.03-0.59 1.83-1.4 2.42-2.45s0.88-2.24 0.88-3.58-0.29-2.53-0.88-3.58c-0.58-1.05-1.39-1.86-2.42-2.45-1.03-0.58-2.18-0.88-3.45-0.88s-2.42 0.29-3.45 0.88-1.83 1.4-2.42 2.45-0.88 2.24-0.88 3.58 0.29 2.53 0.88 3.58 1.39 1.86 2.42 2.45 2.18 0.88 3.45 0.88 2.42-0.29 3.45-0.88z"/>
  <path class="st3" d="m604.94 142.93v21.57h-4.1l-10.76-13.1v13.1h-4.93v-21.57h4.13l10.73 13.1v-13.1h4.93z"/>
  <path class="st3" d="m623.14 163.44c-1.78-0.96-3.17-2.28-4.19-3.98s-1.53-3.61-1.53-5.75 0.51-4.05 1.53-5.75 2.41-3.02 4.19-3.98 3.78-1.43 6-1.43c1.87 0 3.56 0.33 5.07 0.99s2.78 1.6 3.81 2.84l-3.21 2.96c-1.46-1.68-3.27-2.53-5.42-2.53-1.34 0-2.53 0.29-3.58 0.88s-1.86 1.4-2.45 2.45-0.88 2.24-0.88 3.58 0.29 2.53 0.88 3.58 1.4 1.86 2.45 2.45 2.24 0.88 3.58 0.88c2.16 0 3.96-0.85 5.42-2.56l3.21 2.96c-1.03 1.25-2.3 2.21-3.82 2.87s-3.22 0.99-5.08 0.99c-2.2 0-4.19-0.48-5.96-1.43z"/>
  <path class="st3" d="m661.15 142.93v21.57h-4.99v-8.85h-9.8v8.85h-4.99v-21.57h4.99v8.51h9.8v-8.51h4.99z"/>
  <path class="st3" d="m680.48 159.88h-10.02l-1.91 4.62h-5.12l9.62-21.57h4.93l9.65 21.57h-5.24l-1.91-4.62zm-1.58-3.79-3.42-8.26-3.42 8.26h6.84z"/>
  <path class="st3" d="m709.66 142.93v21.57h-4.1l-10.76-13.1v13.1h-4.93v-21.57h4.13l10.73 13.1v-13.1h4.93z"/>
  <path class="st3" d="m734.56 142.93v21.57h-4.1l-10.76-13.1v13.1h-4.93v-21.57h4.13l10.73 13.1v-13.1h4.93z"/>
  <path class="st3" d="m756.38 160.49v4.01h-16.71v-21.57h16.3v4.01h-11.34v4.68h10.02v3.88h-10.02v4.99h11.74z"/>
  <path class="st3" d="m760.36 142.93h4.99v17.51h10.82v4.07h-15.81v-21.57z"/>
 </g>
</svg>
