<?xml version="1.0" encoding="UTF-8"?>
<svg id="Ebene_1" xmlns="http://www.w3.org/2000/svg" version="1.1" viewBox="0 0 376.83 45.75">
  <!-- Generator: Adobe Illustrator 29.5.0, SVG Export Plug-In . SVG Version: 2.1.0 Build 137)  -->
  <defs>
    <style>
      .st0 {
        fill: #fff;
      }
    </style>
  </defs>
  <circle class="st0" cx="349.67" cy="42.76" r="2.99"/>
  <circle class="st0" cx="359.44" cy="42.76" r="2.99"/>
  <circle class="st0" cx="369.2" cy="42.76" r="2.99"/>
  <path class="st0" d="M14.35,8.84H0V.38h39.09v8.46h-14.35v36.4h-10.38V8.84Z"/>
  <path class="st0" d="M85.8.38v44.85h-10.38v-18.39h-20.38v18.39h-10.38V.38h10.38v17.69h20.38V.38h10.38Z"/>
  <path class="st0" d="M124.01,45.24l-8.65-12.5h-9.55v12.5h-10.38V.38h19.42c3.97,0,7.42.66,10.35,1.99,2.93,1.32,5.18,3.2,6.76,5.64,1.58,2.44,2.37,5.32,2.37,8.65s-.8,6.21-2.4,8.62-3.88,4.26-6.82,5.54l10.06,14.42h-11.15ZM121.39,10.86c-1.62-1.35-3.99-2.02-7.11-2.02h-8.46v15.63h8.46c3.12,0,5.49-.68,7.11-2.05,1.62-1.37,2.44-3.29,2.44-5.77s-.81-4.45-2.44-5.8Z"/>
  <path class="st0" d="M177.26,36.91v8.33h-34.73V.38h33.9v8.33h-23.58v9.74h20.83v8.07h-20.83v10.38h24.41Z"/>
  <path class="st0" d="M220.26,36.91v8.33h-34.73V.38h33.9v8.33h-23.58v9.74h20.83v8.07h-20.83v10.38h24.41Z"/>
  <path class="st0" d="M269.34,45.24l-.06-26.91-13.2,22.17h-4.68l-13.14-21.59v26.34h-9.74V.38h8.59l16.79,27.87L270.43.38h8.52l.13,44.85h-9.74Z"/>
  <path class="st0" d="M319.26,35.63h-20.83l-3.97,9.61h-10.64L303.81.38h10.25l20.06,44.85h-10.89l-3.97-9.61ZM315.99,27.75l-7.11-17.17-7.11,17.17h14.22Z"/>
  <g>
    <path class="st0" d="M359.04,10.5c-1.67,0-3.02,1.36-3.02,3.02v2.39h6.04v-2.39c0-1.67-1.36-3.02-3.02-3.02Z"/>
    <path class="st0" d="M359.04.03c-9.81,0-17.79,7.98-17.79,17.79,0,3.89,1.26,7.5,3.39,10.43l-2.22,6.61,6.84-2.19c2.81,1.86,6.17,2.94,9.79,2.94,9.81,0,17.79-7.98,17.79-17.79S368.85.03,359.04.03ZM365.93,23.98c0,.89-.72,1.61-1.61,1.61h-10.55c-.89,0-1.61-.72-1.61-1.61v-6.46c0-.89.72-1.61,1.61-1.61h.16v-2.39c0-2.82,2.3-5.12,5.12-5.12s5.12,2.3,5.12,5.12v2.39h.16c.89,0,1.61.72,1.61,1.61v6.46Z"/>
  </g>
</svg>