<?xml version="1.0" encoding="UTF-8"?>
<!DOCTYPE svg PUBLIC "-//W3C//DTD SVG 1.1//EN" "http://www.w3.org/Graphics/SVG/1.1/DTD/svg11.dtd">
<svg xmlns="http://www.w3.org/2000/svg" version="1.1" width="256px" height="256px" style="shape-rendering:geometricPrecision; text-rendering:geometricPrecision; image-rendering:optimizeQuality; fill-rule:evenodd; clip-rule:evenodd" xmlns:xlink="http://www.w3.org/1999/xlink">
<g><path style="opacity:0.849" fill="#fefefe" d="M 114.5,20.5 C 147.312,17.531 176.645,26.031 202.5,46C 229.829,71.3053 234.996,100.472 218,133.5C 201.489,156.025 179.322,169.858 151.5,175C 131.985,178.596 112.651,177.763 93.5,172.5C 75.7867,177.845 58.12,183.345 40.5,189C 36.3333,190.167 34.8333,188.667 36,184.5C 41.3799,173.573 46.8799,162.74 52.5,152C 28.8544,130.252 22.021,104.085 32,73.5C 44.475,49.7023 63.6417,33.8689 89.5,26C 97.8688,23.6955 106.202,21.8622 114.5,20.5 Z"/></g>
<g><path style="opacity:1" fill="#ff7300" d="M 112.5,27.5 C 109.215,31.2764 105.215,34.1098 100.5,36C 92.2948,44.7693 82.9615,52.1026 72.5,58C 71.5467,59.9552 70.2134,61.6218 68.5,63C 57.3249,71.6702 45.9916,80.1702 34.5,88.5C 34.5651,85.5718 35.2318,82.9052 36.5,80.5C 36.8425,82.2252 37.8425,82.7252 39.5,82C 46.0382,78.7278 51.3715,74.0611 55.5,68C 66.0364,62.1225 75.3697,54.7892 83.5,46C 87.0587,44.7723 90.392,43.1056 93.5,41C 97.818,36.1673 102.485,32.0006 107.5,28.5C 109.042,27.6993 110.708,27.366 112.5,27.5 Z"/></g>
<g><path style="opacity:1" fill="#eefe00" d="M 140.5,27.5 C 144.179,27.7244 147.846,28.0578 151.5,28.5C 147.642,32.1928 143.642,35.6928 139.5,39C 136.975,40.7189 134.308,41.8856 131.5,42.5C 127.452,42.3946 123.452,42.7279 119.5,43.5C 127.047,38.9622 134.047,33.6289 140.5,27.5 Z"/></g>
<g><path style="opacity:1" fill="#aaff01" d="M 151.5,28.5 C 154.067,29.475 156.733,30.1417 159.5,30.5C 157.858,35.5122 154.524,39.0122 149.5,41C 147.244,43.0829 145.244,45.2496 143.5,47.5C 139.847,45.0585 135.847,43.3918 131.5,42.5C 134.308,41.8856 136.975,40.7189 139.5,39C 143.642,35.6928 147.642,32.1928 151.5,28.5 Z"/></g>
<g><path style="opacity:1" fill="#20ff17" d="M 170.5,34.5 C 178.981,37.569 186.648,41.9024 193.5,47.5C 192.039,50.255 189.705,52.0884 186.5,53C 177.268,61.0665 167.601,68.5665 157.5,75.5C 157.562,67.3548 155.229,60.0215 150.5,53.5C 149.265,51.2271 149.598,49.3938 151.5,48C 157.63,42.96 163.964,38.46 170.5,34.5 Z"/></g>
<g><path style="opacity:0.887" fill="#fefefe" d="M 131.5,42.5 C 135.847,43.3918 139.847,45.0585 143.5,47.5C 146.473,48.8103 148.807,50.8103 150.5,53.5C 155.229,60.0215 157.562,67.3548 157.5,75.5C 157.5,78.5 157.5,81.5 157.5,84.5C 157.5,86.1667 157.5,87.8333 157.5,89.5C 158.486,91.4077 160.152,92.4077 162.5,92.5C 163.5,93.8333 164.5,95.1667 165.5,96.5C 165.433,97.9587 165.766,99.2921 166.5,100.5C 166.5,102.167 166.5,103.833 166.5,105.5C 166.5,106.833 166.5,108.167 166.5,109.5C 166.5,112.167 166.5,114.833 166.5,117.5C 166.5,119.5 166.5,121.5 166.5,123.5C 166.5,124.167 166.5,124.833 166.5,125.5C 166.5,128.5 166.5,131.5 166.5,134.5C 166.483,136.565 166.15,138.565 165.5,140.5C 163.746,144.22 160.746,146.22 156.5,146.5C 154.833,146.5 153.167,146.5 151.5,146.5C 148.5,146.5 145.5,146.5 142.5,146.5C 140.5,146.5 138.5,146.5 136.5,146.5C 135.833,146.5 135.167,146.5 134.5,146.5C 131.167,146.5 127.833,146.5 124.5,146.5C 121.833,146.5 119.167,146.5 116.5,146.5C 113.5,146.5 110.5,146.5 107.5,146.5C 106.167,146.5 104.833,146.5 103.5,146.5C 100.098,146.658 96.7644,146.324 93.5,145.5C 92.7095,144.599 91.7095,143.932 90.5,143.5C 89.701,140.57 89.3677,137.57 89.5,134.5C 89.5,132.5 89.5,130.5 89.5,128.5C 89.5,118.5 89.5,108.5 89.5,98.5C 90.257,94.0807 92.9236,91.7474 97.5,91.5C 97.5,88.8333 97.5,86.1667 97.5,83.5C 97.5,81.8333 97.5,80.1667 97.5,78.5C 97.5,76.5 97.5,74.5 97.5,72.5C 97.8333,70.5 98.1667,68.5 98.5,66.5C 99.1667,64.1667 99.8333,61.8333 100.5,59.5C 104.589,51.6058 110.923,46.2724 119.5,43.5C 123.452,42.7279 127.452,42.3946 131.5,42.5 Z"/></g>
<g><path style="opacity:1" fill="#7dff00" d="M 159.5,30.5 C 163.167,31.8333 166.833,33.1667 170.5,34.5C 163.964,38.46 157.63,42.96 151.5,48C 149.598,49.3938 149.265,51.2271 150.5,53.5C 148.807,50.8103 146.473,48.8103 143.5,47.5C 145.244,45.2496 147.244,43.0829 149.5,41C 154.524,39.0122 157.858,35.5122 159.5,30.5 Z"/></g>
<g><path style="opacity:1" fill="#ffdf01" d="M 134.5,26.5 C 136.565,26.5172 138.565,26.8505 140.5,27.5C 134.047,33.6289 127.047,38.9622 119.5,43.5C 110.923,46.2724 104.589,51.6058 100.5,59.5C 95.5482,62.0851 90.5482,64.7518 85.5,67.5C 86.5551,65.0434 88.3885,63.3768 91,62.5C 92.0066,59.2462 94.1733,57.2462 97.5,56.5C 97.9209,54.0901 99.2542,52.2568 101.5,51C 108.239,46.5333 114.572,41.5333 120.5,36C 124.293,34.1843 127.96,32.1843 131.5,30C 132.71,28.9609 133.71,27.7942 134.5,26.5 Z"/></g>
<g><path style="opacity:1" fill="#ff2700" d="M 93.5,31.5 C 92.5244,32.8149 91.5244,34.1482 90.5,35.5C 85.5722,38.0986 81.2389,41.432 77.5,45.5C 74.107,47.8631 70.4404,49.6965 66.5,51C 62.3406,57.4924 56.6739,62.1591 49.5,65C 46.0319,67.6316 42.6986,70.4649 39.5,73.5C 51.3835,51.8634 69.3835,37.8634 93.5,31.5 Z"/></g>
<g><path style="opacity:1" fill="#ff5900" d="M 107.5,28.5 C 102.485,32.0006 97.818,36.1673 93.5,41C 90.392,43.1056 87.0587,44.7723 83.5,46C 75.3697,54.7892 66.0364,62.1225 55.5,68C 51.3715,74.0611 46.0382,78.7278 39.5,82C 37.8425,82.7252 36.8425,82.2252 36.5,80.5C 36.9348,77.8427 37.9348,75.5093 39.5,73.5C 42.6986,70.4649 46.0319,67.6316 49.5,65C 56.6739,62.1591 62.3406,57.4924 66.5,51C 70.4404,49.6965 74.107,47.8631 77.5,45.5C 81.2389,41.432 85.5722,38.0986 90.5,35.5C 91.5244,34.1482 92.5244,32.8149 93.5,31.5C 98.0304,29.9935 102.697,28.9935 107.5,28.5 Z"/></g>
<g><path style="opacity:1" fill="#c3ff00" d="M 131.5,49.5 C 128.333,53.4364 124.667,56.9364 120.5,60C 119.167,60.3333 117.833,60.6667 116.5,61C 112.995,66.0752 108.662,70.2419 103.5,73.5C 105.341,56.3028 114.674,48.3028 131.5,49.5 Z"/></g>
<g><path style="opacity:1" fill="#01fe8b" d="M 199.5,52.5 C 200.5,52.8333 201.167,53.5 201.5,54.5C 191,62.7855 180.334,71.1189 169.5,79.5C 166.384,83.9546 162.384,87.2879 157.5,89.5C 157.5,87.8333 157.5,86.1667 157.5,84.5C 167.176,75.9978 176.842,67.4978 186.5,59C 190.741,56.578 195.075,54.4113 199.5,52.5 Z"/></g>
<g><path style="opacity:1" fill="#ff8f00" d="M 121.5,26.5 C 115.42,31.4777 109.753,36.9777 104.5,43C 100.757,44.1365 97.0901,45.4698 93.5,47C 86.1581,54.2677 78.4914,61.2677 70.5,68C 65.2378,70.6346 60.2378,73.6346 55.5,77C 51.8981,82.3102 47.2314,86.4769 41.5,89.5C 39.5863,91.202 38.0863,93.202 37,95.5C 35.8873,96.305 34.7206,96.9717 33.5,97.5C 33.2641,94.3915 33.5975,91.3915 34.5,88.5C 45.9916,80.1702 57.3249,71.6702 68.5,63C 70.2134,61.6218 71.5467,59.9552 72.5,58C 82.9615,52.1026 92.2948,44.7693 100.5,36C 105.215,34.1098 109.215,31.2764 112.5,27.5C 115.482,27.0371 118.482,26.7038 121.5,26.5 Z"/></g>
<g><path style="opacity:1" fill="#fbfa00" d="M 100.5,59.5 C 99.8333,61.8333 99.1667,64.1667 98.5,66.5C 90.3488,73.2905 81.6821,79.4572 72.5,85C 67.4473,89.0576 62.7807,93.3909 58.5,98C 55.2108,100.478 51.5442,102.144 47.5,103C 43.625,106.381 39.625,109.547 35.5,112.5C 34.5655,111.432 34.2322,110.099 34.5,108.5C 38.6813,104.634 43.3479,101.634 48.5,99.5C 48.281,98.325 48.6143,97.325 49.5,96.5C 59.4468,89.8446 69.1135,82.6779 78.5,75C 81.0386,72.6303 83.3719,70.1303 85.5,67.5C 90.5482,64.7518 95.5482,62.0851 100.5,59.5 Z"/></g>
<g><path style="opacity:1" fill="#01fe6a" d="M 193.5,47.5 C 195.909,48.7007 197.909,50.3674 199.5,52.5C 195.075,54.4113 190.741,56.578 186.5,59C 176.842,67.4978 167.176,75.9978 157.5,84.5C 157.5,81.5 157.5,78.5 157.5,75.5C 167.601,68.5665 177.268,61.0665 186.5,53C 189.705,52.0884 192.039,50.255 193.5,47.5 Z"/></g>
<g><path style="opacity:1" fill="#89ff00" d="M 131.5,49.5 C 135.327,49.7516 138.66,51.0849 141.5,53.5C 133.381,59.4513 125.714,65.9513 118.5,73C 113.387,75.2813 108.387,77.7813 103.5,80.5C 103.5,78.1667 103.5,75.8333 103.5,73.5C 108.662,70.2419 112.995,66.0752 116.5,61C 117.833,60.6667 119.167,60.3333 120.5,60C 124.667,56.9364 128.333,53.4364 131.5,49.5 Z"/></g>
<g><path style="opacity:1" fill="#02ffdc" d="M 205.5,58.5 C 206.974,59.4363 207.974,60.7697 208.5,62.5C 197.734,71.7495 186.734,80.9162 175.5,90C 172.284,92.3897 168.95,94.5564 165.5,96.5C 164.5,95.1667 163.5,93.8333 162.5,92.5C 167.781,88.5562 172.781,84.2229 177.5,79.5C 181.282,78.2946 184.948,76.7946 188.5,75C 193.649,69.0682 199.316,63.5682 205.5,58.5 Z"/></g>
<g><path style="opacity:1" fill="#01ecff" d="M 211.5,66.5 C 212.338,66.8417 212.672,67.5084 212.5,68.5C 208.496,73.0207 203.829,76.8541 198.5,80C 194.047,87.2339 187.714,92.0673 179.5,94.5C 175.421,98.588 171.088,102.255 166.5,105.5C 166.5,103.833 166.5,102.167 166.5,100.5C 181.481,89.1909 196.481,77.8576 211.5,66.5 Z"/></g>
<g><path style="opacity:1" fill="#01fef5" d="M 208.5,62.5 C 209.974,63.4363 210.974,64.7697 211.5,66.5C 196.481,77.8576 181.481,89.1909 166.5,100.5C 165.766,99.2921 165.433,97.9587 165.5,96.5C 168.95,94.5564 172.284,92.3897 175.5,90C 186.734,80.9162 197.734,71.7495 208.5,62.5 Z"/></g>
<g><path style="opacity:1" fill="#35ff05" d="M 141.5,53.5 C 148.595,59.0299 151.929,66.3633 151.5,75.5C 146.04,79.1218 140.707,82.9551 135.5,87C 133.959,88.3712 132.625,89.8712 131.5,91.5C 122.167,91.5 112.833,91.5 103.5,91.5C 103.5,87.8333 103.5,84.1667 103.5,80.5C 108.387,77.7813 113.387,75.2813 118.5,73C 125.714,65.9513 133.381,59.4513 141.5,53.5 Z"/></g>
<g><path style="opacity:1" fill="#ffaf00" d="M 121.5,26.5 C 124.167,26.5 126.833,26.5 129.5,26.5C 127.389,30.3982 124.055,32.5648 119.5,33C 116.703,36.23 113.37,38.73 109.5,40.5C 108.316,42.0461 107.316,43.7127 106.5,45.5C 101.037,49.1313 96.037,53.298 91.5,58C 82.7545,61.7211 75.4212,67.3878 69.5,75C 57.5729,84.4408 45.5729,93.6075 33.5,102.5C 33.5,100.833 33.5,99.1667 33.5,97.5C 34.7206,96.9717 35.8873,96.305 37,95.5C 38.0863,93.202 39.5863,91.202 41.5,89.5C 47.2314,86.4769 51.8981,82.3102 55.5,77C 60.2378,73.6346 65.2378,70.6346 70.5,68C 78.4914,61.2677 86.1581,54.2677 93.5,47C 97.0901,45.4698 100.757,44.1365 104.5,43C 109.753,36.9777 115.42,31.4777 121.5,26.5 Z"/></g>
<g><path style="opacity:1" fill="#c2ff00" d="M 97.5,72.5 C 97.5,74.5 97.5,76.5 97.5,78.5C 91.3335,83.4328 84.6668,87.4328 77.5,90.5C 77.5,91.5 77.5,92.5 77.5,93.5C 73.1472,94.3457 69.8139,96.679 67.5,100.5C 63.7424,102.423 60.4091,104.923 57.5,108C 54.8333,109 52.1667,110 49.5,111C 46.5334,115.438 42.8667,118.938 38.5,121.5C 37.6554,120.329 36.9887,118.995 36.5,117.5C 42.9597,113.602 48.6264,108.769 53.5,103C 55.8082,101.133 58.4749,100.133 61.5,100C 62.1667,99 62.8333,98 63.5,97C 68.6944,93.9226 73.6944,90.5893 78.5,87C 80.9781,82.5196 84.6448,79.5196 89.5,78C 90.9323,74.4451 93.599,72.6118 97.5,72.5 Z"/></g>
<g><path style="opacity:1" fill="#04fe4b" d="M 151.5,75.5 C 151.5,80.8333 151.5,86.1667 151.5,91.5C 144.833,91.5 138.167,91.5 131.5,91.5C 132.625,89.8712 133.959,88.3712 135.5,87C 140.707,82.9551 146.04,79.1218 151.5,75.5 Z"/></g>
<g><path style="opacity:1" fill="#03feb3" d="M 201.5,54.5 C 203.167,55.5 204.5,56.8333 205.5,58.5C 199.316,63.5682 193.649,69.0682 188.5,75C 184.948,76.7946 181.282,78.2946 177.5,79.5C 172.781,84.2229 167.781,88.5562 162.5,92.5C 160.152,92.4077 158.486,91.4077 157.5,89.5C 162.384,87.2879 166.384,83.9546 169.5,79.5C 180.334,71.1189 191,62.7855 201.5,54.5 Z"/></g>
<g><path style="opacity:1" fill="#02c8ff" d="M 212.5,68.5 C 214.25,69.6594 215.25,71.326 215.5,73.5C 204.988,83.6726 193.321,92.3392 180.5,99.5C 177.207,103.139 173.54,106.306 169.5,109C 168.552,109.483 167.552,109.649 166.5,109.5C 166.5,108.167 166.5,106.833 166.5,105.5C 171.088,102.255 175.421,98.588 179.5,94.5C 187.714,92.0673 194.047,87.2339 198.5,80C 203.829,76.8541 208.496,73.0207 212.5,68.5 Z"/></g>
<g><path style="opacity:1" fill="#03afff" d="M 215.5,73.5 C 216.674,74.5137 217.34,75.847 217.5,77.5C 215.661,78.5077 214.328,80.0077 213.5,82C 205.407,86.265 197.74,91.265 190.5,97C 188.028,98.7985 186.361,101.132 185.5,104C 179.877,107.955 174.543,112.288 169.5,117C 168.552,117.483 167.552,117.649 166.5,117.5C 166.5,114.833 166.5,112.167 166.5,109.5C 167.552,109.649 168.552,109.483 169.5,109C 173.54,106.306 177.207,103.139 180.5,99.5C 193.321,92.3392 204.988,83.6726 215.5,73.5 Z"/></g>
<g><path style="opacity:1" fill="#ffd000" d="M 129.5,26.5 C 131.167,26.5 132.833,26.5 134.5,26.5C 133.71,27.7942 132.71,28.9609 131.5,30C 127.96,32.1843 124.293,34.1843 120.5,36C 114.572,41.5333 108.239,46.5333 101.5,51C 99.2542,52.2568 97.9209,54.0901 97.5,56.5C 94.1733,57.2462 92.0066,59.2462 91,62.5C 88.3885,63.3768 86.5551,65.0434 85.5,67.5C 83.3719,70.1303 81.0386,72.6303 78.5,75C 69.1135,82.6779 59.4468,89.8446 49.5,96.5C 48.6143,97.325 48.281,98.325 48.5,99.5C 43.3479,101.634 38.6813,104.634 34.5,108.5C 33.6586,106.621 33.3253,104.621 33.5,102.5C 45.5729,93.6075 57.5729,84.4408 69.5,75C 75.4212,67.3878 82.7545,61.7211 91.5,58C 96.037,53.298 101.037,49.1313 106.5,45.5C 107.316,43.7127 108.316,42.0461 109.5,40.5C 113.37,38.73 116.703,36.23 119.5,33C 124.055,32.5648 127.389,30.3982 129.5,26.5 Z"/></g>
<g><path style="opacity:1" fill="#0a09ff" d="M 221.5,96.5 C 221.663,101.547 221.329,106.547 220.5,111.5C 218.203,112.835 216.203,114.668 214.5,117C 210.621,118.049 206.954,119.549 203.5,121.5C 202.585,122.328 201.919,123.328 201.5,124.5C 195.012,128.119 189.346,132.786 184.5,138.5C 177.681,142.489 172.015,147.656 167.5,154C 160.398,159.198 153.398,164.365 146.5,169.5C 140.203,170.32 133.869,170.653 127.5,170.5C 129.255,169.038 130.588,167.205 131.5,165C 140.519,159.845 148.853,153.679 156.5,146.5C 160.746,146.22 163.746,144.22 165.5,140.5C 166.552,140.649 167.552,140.483 168.5,140C 173.321,135.012 178.321,130.179 183.5,125.5C 196.18,115.816 208.847,106.149 221.5,96.5 Z"/></g>
<g><path style="opacity:1" fill="#01fe58" d="M 125.5,97.5 C 128.833,97.5 132.167,97.5 135.5,97.5C 132.359,99.6752 129.026,101.675 125.5,103.5C 116.616,113.261 106.616,121.594 95.5,128.5C 95.5,126.5 95.5,124.5 95.5,122.5C 102.048,119.41 107.048,114.743 110.5,108.5C 116.102,105.551 121.102,101.885 125.5,97.5 Z"/></g>
<g><path style="opacity:1" fill="#01fe79" d="M 135.5,97.5 C 137.167,97.5 138.833,97.5 140.5,97.5C 134.197,102.658 127.864,107.825 121.5,113C 120.08,115.209 118.413,117.209 116.5,119C 112.776,119.955 109.443,121.455 106.5,123.5C 104.24,128.61 100.573,132.61 95.5,135.5C 95.5,133.167 95.5,130.833 95.5,128.5C 106.616,121.594 116.616,113.261 125.5,103.5C 129.026,101.675 132.359,99.6752 135.5,97.5 Z"/></g>
<g><path style="opacity:1" fill="#0279ff" d="M 218.5,81.5 C 219.404,82.209 219.737,83.209 219.5,84.5C 211.578,90.92 203.244,96.92 194.5,102.5C 186.409,111.564 177.075,119.23 166.5,125.5C 166.5,124.833 166.5,124.167 166.5,123.5C 174.919,117.187 182.586,110.021 189.5,102C 196.723,97.865 203.056,92.5317 208.5,86C 211.729,84.2718 215.062,82.7718 218.5,81.5 Z"/></g>
<g><path style="opacity:1" fill="#e3ff00" d="M 98.5,66.5 C 98.1667,68.5 97.8333,70.5 97.5,72.5C 93.599,72.6118 90.9323,74.4451 89.5,78C 84.6448,79.5196 80.9781,82.5196 78.5,87C 73.6944,90.5893 68.6944,93.9226 63.5,97C 62.8333,98 62.1667,99 61.5,100C 58.4749,100.133 55.8082,101.133 53.5,103C 48.6264,108.769 42.9597,113.602 36.5,117.5C 35.962,115.883 35.6287,114.216 35.5,112.5C 39.625,109.547 43.625,106.381 47.5,103C 51.5442,102.144 55.2108,100.478 58.5,98C 62.7807,93.3909 67.4473,89.0576 72.5,85C 81.6821,79.4572 90.3488,73.2905 98.5,66.5 Z"/></g>
<g><path style="opacity:1" fill="#05fe24" d="M 125.5,97.5 C 121.102,101.885 116.102,105.551 110.5,108.5C 107.048,114.743 102.048,119.41 95.5,122.5C 95.5,114.167 95.5,105.833 95.5,97.5C 105.5,97.5 115.5,97.5 125.5,97.5 Z"/></g>
<g><path style="opacity:1" fill="#0132ff" d="M 220.5,89.5 C 221.468,91.6074 221.802,93.9407 221.5,96.5C 208.847,106.149 196.18,115.816 183.5,125.5C 178.321,130.179 173.321,135.012 168.5,140C 167.552,140.483 166.552,140.649 165.5,140.5C 166.15,138.565 166.483,136.565 166.5,134.5C 169.753,131.632 172.753,128.466 175.5,125C 190.351,112.983 205.351,101.15 220.5,89.5 Z"/></g>
<g><path style="opacity:1" fill="#01fe9a" d="M 140.5,97.5 C 142.5,97.5 144.5,97.5 146.5,97.5C 144.275,100.889 141.275,103.389 137.5,105C 127.219,116.105 115.553,125.605 102.5,133.5C 101.316,135.046 100.316,136.713 99.5,138.5C 98.5832,139.127 97.5832,139.461 96.5,139.5C 95.5655,138.432 95.2322,137.099 95.5,135.5C 100.573,132.61 104.24,128.61 106.5,123.5C 109.443,121.455 112.776,119.955 116.5,119C 118.413,117.209 120.08,115.209 121.5,113C 127.864,107.825 134.197,102.658 140.5,97.5 Z"/></g>
<g><path style="opacity:1" fill="#018eff" d="M 217.5,77.5 C 218.234,78.7079 218.567,80.0413 218.5,81.5C 215.062,82.7718 211.729,84.2718 208.5,86C 203.056,92.5317 196.723,97.865 189.5,102C 182.586,110.021 174.919,117.187 166.5,123.5C 166.5,121.5 166.5,119.5 166.5,117.5C 167.552,117.649 168.552,117.483 169.5,117C 174.543,112.288 179.877,107.955 185.5,104C 186.361,101.132 188.028,98.7985 190.5,97C 197.74,91.265 205.407,86.265 213.5,82C 214.328,80.0077 215.661,78.5077 217.5,77.5 Z"/></g>
<g><path style="opacity:1" fill="#7fff00" d="M 97.5,83.5 C 97.5,86.1667 97.5,88.8333 97.5,91.5C 92.9236,91.7474 90.257,94.0807 89.5,98.5C 86.6667,100.478 83.6667,102.311 80.5,104C 68.8694,114.149 56.8694,123.649 44.5,132.5C 42.412,130.664 41.0787,128.331 40.5,125.5C 42.0257,124.895 43.0257,123.729 43.5,122C 47.2627,119.452 51.2627,117.452 55.5,116C 62.2582,110.96 68.5915,105.46 74.5,99.5C 82.1786,94.1498 89.8453,88.8165 97.5,83.5 Z"/></g>
<g><path style="opacity:1" fill="#03ffde" d="M 156.5,97.5 C 158.179,97.2852 159.179,97.9519 159.5,99.5C 160.178,103.273 158.844,106.106 155.5,108C 141.4,118.371 127.733,129.205 114.5,140.5C 111.5,140.5 108.5,140.5 105.5,140.5C 108.375,136.719 112.042,133.886 116.5,132C 121.167,127.333 125.833,122.667 130.5,118C 139.457,111.377 148.123,104.544 156.5,97.5 Z"/></g>
<g><path style="opacity:1" fill="#a5ff00" d="M 97.5,78.5 C 97.5,80.1667 97.5,81.8333 97.5,83.5C 89.8453,88.8165 82.1786,94.1498 74.5,99.5C 68.5915,105.46 62.2582,110.96 55.5,116C 51.2627,117.452 47.2627,119.452 43.5,122C 43.0257,123.729 42.0257,124.895 40.5,125.5C 39.3263,124.486 38.6596,123.153 38.5,121.5C 42.8667,118.938 46.5334,115.438 49.5,111C 52.1667,110 54.8333,109 57.5,108C 60.4091,104.923 63.7424,102.423 67.5,100.5C 69.8139,96.679 73.1472,94.3457 77.5,93.5C 77.5,92.5 77.5,91.5 77.5,90.5C 84.6668,87.4328 91.3335,83.4328 97.5,78.5 Z"/></g>
<g><path style="opacity:1" fill="#0fdcff" d="M 160.5,106.5 C 160.5,108.5 160.5,110.5 160.5,112.5C 158.518,113.491 156.518,114.491 154.5,115.5C 149.647,121.599 144.314,127.265 138.5,132.5C 137.264,133.246 135.93,133.579 134.5,133.5C 134.5,134.5 134.5,135.5 134.5,136.5C 131.246,136.794 128.579,138.127 126.5,140.5C 124.5,140.5 122.5,140.5 120.5,140.5C 131.973,130.272 143.973,120.772 156.5,112C 158.025,110.207 159.358,108.374 160.5,106.5 Z"/></g>
<g><path style="opacity:1" fill="#15c2ff" d="M 160.5,112.5 C 160.5,115.5 160.5,118.5 160.5,121.5C 160.167,121.5 159.833,121.5 159.5,121.5C 159.44,120.957 159.107,120.624 158.5,120.5C 155.5,122.333 152.5,124.167 149.5,126C 144.606,131.727 138.939,136.56 132.5,140.5C 130.5,140.5 128.5,140.5 126.5,140.5C 128.579,138.127 131.246,136.794 134.5,136.5C 134.5,135.5 134.5,134.5 134.5,133.5C 135.93,133.579 137.264,133.246 138.5,132.5C 144.314,127.265 149.647,121.599 154.5,115.5C 156.518,114.491 158.518,113.491 160.5,112.5 Z"/></g>
<g><path style="opacity:1" fill="#0ef5fe" d="M 159.5,99.5 C 160.468,101.607 160.802,103.941 160.5,106.5C 159.358,108.374 158.025,110.207 156.5,112C 143.973,120.772 131.973,130.272 120.5,140.5C 118.5,140.5 116.5,140.5 114.5,140.5C 127.733,129.205 141.4,118.371 155.5,108C 158.844,106.106 160.178,103.273 159.5,99.5 Z"/></g>
<g><path style="opacity:1" fill="#025cff" d="M 219.5,84.5 C 220.451,85.9187 220.784,87.5853 220.5,89.5C 205.351,101.15 190.351,112.983 175.5,125C 172.753,128.466 169.753,131.632 166.5,134.5C 166.5,131.5 166.5,128.5 166.5,125.5C 177.075,119.23 186.409,111.564 194.5,102.5C 203.244,96.92 211.578,90.92 219.5,84.5 Z"/></g>
<g><path style="opacity:1" fill="#02feb5" d="M 146.5,97.5 C 149.833,97.5 153.167,97.5 156.5,97.5C 148.123,104.544 139.457,111.377 130.5,118C 125.833,122.667 121.167,127.333 116.5,132C 112.042,133.886 108.375,136.719 105.5,140.5C 102.287,140.81 99.2869,140.477 96.5,139.5C 97.5832,139.461 98.5832,139.127 99.5,138.5C 100.316,136.713 101.316,135.046 102.5,133.5C 115.553,125.605 127.219,116.105 137.5,105C 141.275,103.389 144.275,100.889 146.5,97.5 Z"/></g>
<g><path style="opacity:1" fill="#25ff14" d="M 89.5,98.5 C 89.5,108.5 89.5,118.5 89.5,128.5C 79.9214,135.718 70.2548,143.052 60.5,150.5C 54.1104,145.443 48.777,139.443 44.5,132.5C 56.8694,123.649 68.8694,114.149 80.5,104C 83.6667,102.311 86.6667,100.478 89.5,98.5 Z"/></g>
<g><path style="opacity:1" fill="#298fff" d="M 159.5,121.5 C 159.833,121.5 160.167,121.5 160.5,121.5C 160.821,127.026 160.488,132.36 159.5,137.5C 159.663,135.143 159.497,132.81 159,130.5C 154.312,133.731 149.812,137.064 145.5,140.5C 143.167,140.5 140.833,140.5 138.5,140.5C 141.736,137.203 145.403,134.37 149.5,132C 151.258,127.908 154.258,125.241 158.5,124C 159.252,123.329 159.586,122.496 159.5,121.5 Z"/></g>
<g><path style="opacity:1" fill="#0366ff" d="M 159.5,137.5 C 159.586,138.496 159.252,139.329 158.5,140C 154.179,140.499 149.846,140.666 145.5,140.5C 149.812,137.064 154.312,133.731 159,130.5C 159.497,132.81 159.663,135.143 159.5,137.5 Z"/></g>
<g><path style="opacity:1" fill="#01fe60" d="M 89.5,128.5 C 89.5,130.5 89.5,132.5 89.5,134.5C 84.8926,137.115 81.226,140.615 78.5,145C 71.5381,149.595 65.2048,154.928 59.5,161C 57.5483,161.366 55.8816,162.199 54.5,163.5C 56.2288,159.042 58.2288,154.709 60.5,150.5C 70.2548,143.052 79.9214,135.718 89.5,128.5 Z"/></g>
<g><path style="opacity:1" fill="#01a6ff" d="M 159.5,121.5 C 159.586,122.496 159.252,123.329 158.5,124C 154.258,125.241 151.258,127.908 149.5,132C 145.403,134.37 141.736,137.203 138.5,140.5C 136.5,140.5 134.5,140.5 132.5,140.5C 138.939,136.56 144.606,131.727 149.5,126C 152.5,124.167 155.5,122.333 158.5,120.5C 159.107,120.624 159.44,120.957 159.5,121.5 Z"/></g>
<g><path style="opacity:1" fill="#02fe84" d="M 89.5,134.5 C 89.3677,137.57 89.701,140.57 90.5,143.5C 81.5114,147.163 73.8447,152.663 67.5,160C 61.0121,164.658 54.6787,169.491 48.5,174.5C 49.7417,170.345 51.7417,166.678 54.5,163.5C 55.8816,162.199 57.5483,161.366 59.5,161C 65.2048,154.928 71.5381,149.595 78.5,145C 81.226,140.615 84.8926,137.115 89.5,134.5 Z"/></g>
<g><path style="opacity:1" fill="#4d00ff" d="M 220.5,111.5 C 212.997,135.839 197.331,152.673 173.5,162C 164.748,165.418 155.748,167.918 146.5,169.5C 153.398,164.365 160.398,159.198 167.5,154C 172.015,147.656 177.681,142.489 184.5,138.5C 189.346,132.786 195.012,128.119 201.5,124.5C 201.919,123.328 202.585,122.328 203.5,121.5C 206.954,119.549 210.621,118.049 214.5,117C 216.203,114.668 218.203,112.835 220.5,111.5 Z"/></g>
<g><path style="opacity:1" fill="#0182ff" d="M 134.5,146.5 C 135.167,146.5 135.833,146.5 136.5,146.5C 129.84,152.484 122.84,158.151 115.5,163.5C 113.497,165.133 112.164,167.133 111.5,169.5C 109.833,169.5 108.167,169.5 106.5,169.5C 106.84,167.321 107.84,165.488 109.5,164C 116.528,158.821 123.861,154.155 131.5,150C 132.71,148.961 133.71,147.794 134.5,146.5 Z"/></g>
<g><path style="opacity:1" fill="#0169ff" d="M 136.5,146.5 C 138.5,146.5 140.5,146.5 142.5,146.5C 141.063,148.527 139.73,150.694 138.5,153C 134.268,155.314 129.935,157.48 125.5,159.5C 121.686,163.566 117.353,166.9 112.5,169.5C 112.167,169.5 111.833,169.5 111.5,169.5C 112.164,167.133 113.497,165.133 115.5,163.5C 122.84,158.151 129.84,152.484 136.5,146.5 Z"/></g>
<g><path style="opacity:1" fill="#02e6ff" d="M 107.5,146.5 C 110.5,146.5 113.5,146.5 116.5,146.5C 111.011,151.148 105.344,155.648 99.5,160C 98.6634,161.011 98.33,162.178 98.5,163.5C 95.5185,163.182 93.1852,164.182 91.5,166.5C 87.8899,167.703 84.2232,168.703 80.5,169.5C 89.3141,161.596 98.3141,153.93 107.5,146.5 Z"/></g>
<g><path style="opacity:1" fill="#03fef5" d="M 103.5,146.5 C 104.833,146.5 106.167,146.5 107.5,146.5C 98.3141,153.93 89.3141,161.596 80.5,169.5C 77.3811,170.87 74.0477,171.87 70.5,172.5C 80.9124,163.122 91.9124,154.456 103.5,146.5 Z"/></g>
<g><path style="opacity:1" fill="#0399ff" d="M 124.5,146.5 C 127.833,146.5 131.167,146.5 134.5,146.5C 133.71,147.794 132.71,148.961 131.5,150C 123.861,154.155 116.528,158.821 109.5,164C 107.84,165.488 106.84,167.321 106.5,169.5C 104.228,168.681 101.894,168.015 99.5,167.5C 105.881,163.965 111.881,159.798 117.5,155C 119.014,152.653 121.014,150.82 123.5,149.5C 124.127,148.583 124.461,147.583 124.5,146.5 Z"/></g>
<g><path style="opacity:1" fill="#0033ff" d="M 151.5,146.5 C 153.167,146.5 154.833,146.5 156.5,146.5C 148.853,153.679 140.519,159.845 131.5,165C 130.588,167.205 129.255,169.038 127.5,170.5C 124.833,170.5 122.167,170.5 119.5,170.5C 123.011,166.493 127.011,162.993 131.5,160C 138.712,156.234 145.378,151.734 151.5,146.5 Z"/></g>
<g><path style="opacity:1" fill="#07c1ff" d="M 116.5,146.5 C 119.167,146.5 121.833,146.5 124.5,146.5C 124.461,147.583 124.127,148.583 123.5,149.5C 121.014,150.82 119.014,152.653 117.5,155C 111.881,159.798 105.881,163.965 99.5,167.5C 96.8728,166.908 94.2062,166.575 91.5,166.5C 93.1852,164.182 95.5185,163.182 98.5,163.5C 98.33,162.178 98.6634,161.011 99.5,160C 105.344,155.648 111.011,151.148 116.5,146.5 Z"/></g>
<g><path style="opacity:1" fill="#03feab" d="M 90.5,143.5 C 91.7095,143.932 92.7095,144.599 93.5,145.5C 89.8326,148.67 85.8326,151.503 81.5,154C 76.3654,162.4 69.3654,168.733 60.5,173C 59.2899,174.039 58.2899,175.206 57.5,176.5C 53.7416,178.758 49.7416,179.758 45.5,179.5C 46.2745,177.604 47.2745,175.937 48.5,174.5C 54.6787,169.491 61.0121,164.658 67.5,160C 73.8447,152.663 81.5114,147.163 90.5,143.5 Z"/></g>
<g><path style="opacity:1" fill="#014fff" d="M 142.5,146.5 C 145.5,146.5 148.5,146.5 151.5,146.5C 145.378,151.734 138.712,156.234 131.5,160C 127.011,162.993 123.011,166.493 119.5,170.5C 116.941,170.802 114.607,170.468 112.5,169.5C 117.353,166.9 121.686,163.566 125.5,159.5C 129.935,157.48 134.268,155.314 138.5,153C 139.73,150.694 141.063,148.527 142.5,146.5 Z"/></g>
<g><path style="opacity:1" fill="#02ffd5" d="M 93.5,145.5 C 96.7644,146.324 100.098,146.658 103.5,146.5C 91.9124,154.456 80.9124,163.122 70.5,172.5C 66.4985,174.589 62.1652,175.922 57.5,176.5C 58.2899,175.206 59.2899,174.039 60.5,173C 69.3654,168.733 76.3654,162.4 81.5,154C 85.8326,151.503 89.8326,148.67 93.5,145.5 Z"/></g>
<g><path style="opacity:0.846" fill="#fefeff" d="M 67.5,197.5 C 87.4109,197.912 94.2442,207.579 88,226.5C 78.0306,236.795 67.6972,237.128 57,227.5C 50.3084,213.734 53.8084,203.734 67.5,197.5 Z"/></g>
<g><path style="opacity:0.838" fill="#fefeff" d="M 122.5,197.5 C 136.183,196.355 144.183,202.521 146.5,216C 143.067,232.551 133.401,237.884 117.5,232C 107.018,223.1 106.018,213.267 114.5,202.5C 116.928,200.295 119.595,198.628 122.5,197.5 Z"/></g>
<g><path style="opacity:0.847" fill="#fffefe" d="M 177.5,197.5 C 194.157,196.325 201.99,203.991 201,220.5C 196.16,232.835 187.327,237.001 174.5,233C 164.249,226.067 161.749,216.9 167,205.5C 169.94,201.963 173.44,199.297 177.5,197.5 Z"/></g>
<g><path style="opacity:1" fill="#0558ff" d="M 75.5,204.5 C 70.5245,208.987 65.1911,212.987 59.5,216.5C 60.7199,206.588 66.0532,202.588 75.5,204.5 Z"/></g>
<g><path style="opacity:1" fill="#bb00ff" d="M 137.5,209.5 C 130.594,213.881 123.927,218.548 117.5,223.5C 113.88,216.211 115.213,210.044 121.5,205C 128.189,202.179 133.522,203.679 137.5,209.5 Z"/></g>
<g><path style="opacity:1" fill="#ff0367" d="M 188.5,205.5 C 186.642,206.595 184.975,207.929 183.5,209.5C 181.392,210.355 179.226,211.022 177,211.5C 175.041,213.784 172.874,215.784 170.5,217.5C 170.589,209.243 174.755,204.576 183,203.5C 185.221,203.393 187.054,204.06 188.5,205.5 Z"/></g>
<g><path style="opacity:1" fill="#ff003c" d="M 188.5,205.5 C 190.404,205.738 191.738,206.738 192.5,208.5C 186.579,214.136 179.912,218.803 172.5,222.5C 171.069,221.22 170.402,219.553 170.5,217.5C 172.874,215.784 175.041,213.784 177,211.5C 179.226,211.022 181.392,210.355 183.5,209.5C 184.975,207.929 186.642,206.595 188.5,205.5 Z"/></g>
<g><path style="opacity:1" fill="#ff000c" d="M 192.5,208.5 C 197.299,216.944 195.299,223.444 186.5,228C 180.476,229.385 175.81,227.552 172.5,222.5C 179.912,218.803 186.579,214.136 192.5,208.5 Z"/></g>
<g><path style="opacity:1" fill="#f501f7" d="M 137.5,209.5 C 140.313,214.733 139.98,219.9 136.5,225C 129.642,229.962 123.309,229.462 117.5,223.5C 123.927,218.548 130.594,213.881 137.5,209.5 Z"/></g>
<g><path style="opacity:1" fill="#1612ff" d="M 75.5,204.5 C 83.9061,207.858 86.4061,213.858 83,222.5C 76.3382,230.023 69.3382,230.357 62,223.5C 60.8638,221.257 60.0305,218.924 59.5,216.5C 65.1911,212.987 70.5245,208.987 75.5,204.5 Z"/></g>
</svg>
